<svg xmlns="http://www.w3.org/2000/svg" viewBox="0 0 200 200" width="200" height="200">
  <defs>
    <linearGradient id="nexusGrad" x1="0%" y1="0%" x2="100%" y2="100%">
      <stop offset="0%" stop-color="#4f46e5" />
      <stop offset="100%" stop-color="#7c3aed" />
    </linearGradient>
    <filter id="glow" x="-20%" y="-20%" width="140%" height="140%">
      <feGaussianBlur stdDeviation="8" result="blur" />
      <feComposite in="SourceGraphic" in2="blur" operator="over" />
    </filter>
  </defs>
  <circle cx="100" cy="100" r="80" fill="none" stroke="url(#nexusGrad)" stroke-width="8" stroke-dasharray="10 15" opacity="0.3" />
  <circle cx="100" cy="100" r="50" fill="none" stroke="url(#nexusGrad)" stroke-width="4" opacity="0.5" />
  
  <path d="M100 20 L100 60 M100 140 L100 180 M20 100 L60 100 M140 100 L180 100" stroke="#6d28d9" stroke-width="4" stroke-linecap="round" />
  <path d="M45 45 L70 70 M155 155 L130 130 M155 45 L130 70 M45 155 L70 130" stroke="#6d28d9" stroke-width="3" stroke-linecap="round" opacity="0.7" />
  
  <circle cx="100" cy="100" r="24" fill="url(#nexusGrad)" filter="url(#glow)" />
  <circle cx="100" cy="20" r="8" fill="#4f46e5" />
  <circle cx="100" cy="180" r="8" fill="#7c3aed" />
  <circle cx="20" cy="100" r="8" fill="#4f46e5" />
  <circle cx="180" cy="100" r="8" fill="#7c3aed" />
  
  <circle cx="45" cy="45" r="5" fill="#6d28d9" />
  <circle cx="155" cy="155" r="5" fill="#6d28d9" />
  <circle cx="155" cy="45" r="5" fill="#6d28d9" />
  <circle cx="45" cy="155" r="5" fill="#6d28d9" />
</svg>